# xmcd
#
# Track frame offsets:
#	150
#	14555
#	33457
#	45535
#	57560
#	70725
#	87437
#	96820
#	108080
#	130342
#	146647
#	165225
#
# Disc length: 2459 seconds
#
# Revision: 1
# Processed by: cddbd v1.4PL0 Copyright (c) Steve Scherf et al.
# Submitted via: EasyCDDAExtractor 6.5.0.1
#
DISCID=9f09990c
DTITLE=Nick Kane - Songs in the key of E
DYEAR=1999
DGENRE=AlternRock
TTITLE0=Dog eat dog
TTITLE1=Dogfight
TTITLE2=Guitars, Guitars, guitars
TTITLE3=Doggish
TTITLE4=Into the fire
TTITLE5=Panatella
TTITLE6=Beach Party
TTITLE7=Joggin' along
TTITLE8=The lonely puppy blues
TTITLE9=Tornado Stomp
TTITLE10=The Dawg
TTITLE11=Hush, Puppy
EXTD=
EXTT0=
EXTT1=
EXTT2=
EXTT3=
EXTT4=
EXTT5=
EXTT6=
EXTT7=
EXTT8=
EXTT9=
EXTT10=
EXTT11=
PLAYORDER=
